<?xml version="1.0" encoding="utf-8"?>
<!-- Generator: Adobe Illustrator 16.0.0, SVG Export Plug-In . SVG Version: 6.00 Build 0)  -->
<!DOCTYPE svg PUBLIC "-//W3C//DTD SVG 1.1//EN" "http://www.w3.org/Graphics/SVG/1.1/DTD/svg11.dtd">
<svg version="1.1" id="Layer_1" xmlns="http://www.w3.org/2000/svg" xmlns:xlink="http://www.w3.org/1999/xlink" x="0px" y="0px"
	 width="96px" height="96px" viewBox="0 0 96 96" enable-background="new 0 0 96 96" xml:space="preserve">
<circle fill-rule="evenodd" clip-rule="evenodd" fill="#00AEEF" cx="48.219" cy="48.054" r="47.5"/>
<path fill-rule="evenodd" clip-rule="evenodd" fill="#F1F2F2" d="M58.371,74.744c-0.158,0.391-1.063,0.604-1.656,0.662
	c-0.781,0.079-1.586-0.074-2.381-0.121c-2.047-0.121-4.125-0.515-6.129-0.281c-2.04,0.238-3.925-0.704-6.035-0.15
	c-2.502,0.656-4.188,0.303-6.557-0.739c-1.332-0.585-2.697,0.101-4.816-0.524c-1.202-0.354-3.104-5.048-4.224-9.268
	c-0.854-3.223-1.043-6.097-1.353-6.99c-0.75-2.164-2.357-3.774-2.63-4.134c0.852-0.042,5.1,4.067,5.637,7.14
	c0.936,5.354,1.278,9.32,3.157,8.794c0.331-0.252,0.432-2.532,0.436-2.959c0.039-3.64,1.529-6.669,3.787-9.405
	c3.811-4.621,8.346-8.647,11.224-14.04c0.796-1.492,1.162-2.902,1.119-4.553c-0.032-1.214,0.246-2.436,0.376-3.655
	c0.029-0.275,0.109-0.598,0.006-0.826c-0.883-1.96-0.504-3.756,0.619-5.483c1.374-2.111,3.422-3.428,5.804-3.602
	c2.438-0.178,4.52-0.895,6.535-2.149c0.34-0.211,1.166-0.119,1.459,0.158c1.449,1.373,1.587,4.412,0.274,5.945
	c-0.843,0.983-1.902,1.781-2.743,2.766c-0.412,0.484-0.79,1.214-0.768,1.817c0.094,2.492,0.266,4.987,0.57,7.461
	c0.187,1.509,0.625,2.995,1.031,4.468c0.379,1.365,1.297,2.728,1.211,4.041c-0.162,2.504-0.877,4.973-1.35,7.457
	c-0.221,1.156-0.703,2.357-0.557,3.471c0.328,2.469,0.982,4.895,1.494,7.34c0.234,1.119,0.769,1.877,1.998,2.104
	c2.239,0.41,0.711,2.472,1.45,3.598c0.193,0.294-0.31,1.063-0.528,1.598c-0.043,0.104-0.251,0.186-0.388,0.196
	c-1.339,0.099-2.725,0.409-3.997,0.155c-0.527-0.105-0.814-1.426-1.207-2.195c-0.107-0.211-0.198-0.43-0.331-0.723
	c-0.386,0.172-0.692,0.307-0.743,0.329C58.281,73.389,58.6,74.177,58.371,74.744z M52.691,64.504
	c0.189,1.191-0.592,2.537-0.994,4.007c1.68,1.243,3.758,0.581,5.869,0.737c-1.149-2.575-2.248-5.042-3.35-7.511
	C53.096,62.337,52.441,62.935,52.691,64.504z M53.961,72.444c0.016-0.18,0.031-0.359,0.047-0.539
	c-1.612-0.212-3.225-0.425-4.836-0.638c-0.024,0.271-0.049,0.54-0.072,0.81C50.72,72.199,52.34,72.322,53.961,72.444z"/>
</svg>
